<svg xmlns="http://www.w3.org/2000/svg" xmlns:xlink="http://www.w3.org/1999/xlink" width="612" height="1125" viewBox="0 0 612 1125"><svg viewBox="0 0 512.171 512.171" width="512.171" height="512.171" id="svg-arrow" y="0"><path fill="#fff" d="M501.504 160.047H234.837V42.714c0-4.309-2.603-8.192-6.592-9.856a10.643 10.643 0 0 0-11.627 2.304L3.115 248.495A10.652 10.652 0 0 0 0 256.047c0 2.837 1.131 5.547 3.115 7.552l213.504 213.419a10.658 10.658 0 0 0 7.552 3.115c1.365 0 2.752-.256 4.075-.811 3.989-1.664 6.592-5.547 6.592-9.856V352.047h266.667c5.888 0 10.667-4.779 10.667-10.667V170.714a10.66 10.66 0 0 0-10.668-10.667z"></path></svg><svg viewBox="0 0 612 612" width="612" height="612" id="svg-cross" y="513"><path fill="#fff" d="M612 36.004L576.521.603 306 270.608 35.478.603 0 36.004l270.522 270.007L0 575.997l35.478 35.4L306 341.411l270.521 269.986 35.479-35.4-270.541-269.986z"></path></svg></svg>