<svg xmlns="http://www.w3.org/2000/svg" viewBox="0 0 49.2 49.2"><path d="M39.156 2.4c-.3-2.1-5.3-2.4-8.2-2.4s-5.9.3-9.8 2.4-5.2 5.7-5.8 7.9c-.4 2.3.2 8.7.2 8.9s-3 .2-4.2.2c-1.2.1-1.4.6-1.5.9s.5 8.7.5 8.7l.4 3c.7.4 3.9.2 4.4.3.6.1.8.9.8 3 .1 2.1.4 10.2.4 11.9.1 1.7.8 1.7 2.6 1.7s8.8.3 9.2.3.8-.5.8-2.1.5-14.7.6-15c.1-.3 1.1 0 2 0s5.2-.3 6-.4c.8-.1 1.1-8 1.1-10.5s-1.7-2.7-2.7-2.7c-1.1-.1-6.1.2-6.4-.1-.3-.2 1-4.1 2.6-4.9 1.7-.8 5.8-.4 6.3-.3s.9-1.1.9-2c0-1 0-6.7-.2-8.8zm-3.6 16.9c.2 0 .9.8 1.1 1.1s-.1.9-.2 1c-.1.1-.9-1.4-1-1.6s0-.5.1-.5zm2.6-9.5c-.5.1-4.9-.4-7.5.5-2.5.9-3.9 3.5-4.1 4.9-.2 1.4-.2 4 .2 4s4 .1 5.3.1c1.4.1 2.1 0 2.2.2.1.2 2 2.9 2 3.1s-.2 1.1-.3 1-1.9-3.2-2-3.1-.5.6-.2.9c.2.3 2.1 3.2 2.1 3.3 0 .1-.3.8-.4.6-.1-.2-2.3-3.9-2.4-3.8-.1.1-.5.5-.3.8s2.5 3.6 2.5 3.7c0 .2 0 1.5-.2 1.5-.2-.1-2.3-4-2.6-4-.4 0-.5.7-.3.9s2.7 3.9 2.7 4c0 .1-.6.4-.8.3-.2-.2-2.2-4-2.4-4s-.8.3-.6.5c.2.3 2.1 3.4 2 3.5-.1 0-.5.2-.8-.2-.3-.3-1.9-3.1-2.1-3s-.6.5-.4.7c.2.3 2 2.4 1.8 2.5s-1.2 0-1.3-.1-1.1-2.1-1.3-2.1-.5.4-.4.6c.1.2.9 1.5.8 1.5-.1 0-2.3-.1-2.4.2-.1.3.1 2.1 0 2.1-.1-.1-1.1-2.1-1.3-2.1s-.4.6-.3.8c.1.3 1.7 2.1 1.7 2.3.1.2.1 1.7-.1 1.5-.1-.2-1.6-2.9-1.7-2.8s-.4.7-.3.9 2.1 3 2.1 3.2.1 2.1 0 2c-.1-.2-2.3-4.2-2.4-4.2-.2 0-.3.9-.2 1.2s2.6 4 2.6 4.2.1 1.2-.1 1.1c-.1-.1-2.7-4.9-2.9-4.8-.1.1-.2.8-.2 1.1.1.3 3 4.8 3.1 4.9s0 2.1-.1 2-3.1-5.3-3.3-5.3c-.2 0-.3.9-.2 1.2.1.2 3.5 5 3.5 5.2 0 .3.1 1.5 0 1.4s-3.7-5.9-3.8-5.9c-.1 0-.3.8-.3 1 .1.2 4 6.1 4 6.3s0 .4-.3.4c-.2 0-.5 0-.7-.2s-3.5-5.6-3.7-5.5-.3.9-.2 1.2c.1.3 3.5 4.6 3.4 4.6-.1.1-4.7-.3-5-.3-.4 0-.7-.1-.7-.1s.2-.2-.3-.7c-.4-.5-1.1-1.2-1.3-1-.3.2-.2.5 0 .7s.9.7.8.8-1.9 0-2-.2-.1-7.4-.2-9.9-.2-6.1-.7-6.5c-.6-.4-4.7-.5-4.9-.7-.2-.2-.7-8.2-.4-8.3.3-.1 4.2.1 4.8-.3.7-.4.8-1.1.7-2-.1-.9-.7-7.2.5-9.6s3.5-4.7 7.1-6.2c3.6-1.4 8-1.3 11.1-.9 3.1.4 3.4 1 3.4 2.4.4 1.4.4 5.9 0 6zm-20.8 10.3c-.2 0-.2.8-.2 1 0 .3-1.6.1-2 .1s-.8.1-.7.4c0 .1 0 .4.2.5s3.3.1 3.6.1c.3 0 .2-1.6.2-1.9-.2-.3-.9-.2-1.1-.2zm4.7-14.7c-.8.4-2.3 1.6-3.3 3.2-.9 1.5-1.2 2.7-1.2 3.7s.1 1.7.3 1.8c.2.1.5 0 .7 0s0-2.9 1.3-5.2 3.3-2.9 3.6-2.9c.3 0 .3-.5.2-.9 0-.4-.8-.1-1.6.3zm6 4.8c-.2-.1-1.1.2-1.5.7-.5.5-1.3 1.9-1.5 2.4s-.1 1.2.2 1.3c.3.1.5 0 .7-.1s.2-1.1.6-2c.4-.9 1.6-1.4 1.8-1.5.1-.1-.1-.7-.3-.8zm5.9-8c-.4-.1-.7.8-.4.9.2.1 1.8.3 2.2.4.4.1.7 0 .8.3s0 2.8.2 2.9.9.4.9-.3.1-3.4-.2-3.6c-.4-.2-3-.5-3.5-.6zm-14.4 40.6c-.3.1-.4.3-.1.8s1.9 2.4 2.2 2.4c.3 0 .6-.3.4-.6-.3-.4-2.2-2.7-2.5-2.6zm1.7-.8c-.1-.1-.6.4-.5.6 0 0 2.1 2.7 2.4 3.1.3.4.6.5.8.3.3-.2-.1-.6-.3-1-.1-.4-2.3-3-2.4-3z"/></svg>