<svg xmlns="http://www.w3.org/2000/svg" viewBox="0 0 46.062 46.062"><path d="M40.273 37.108c-.1-4-.7-31.3-.9-34.4-.3-3-3.3-2.7-5.4-2.7h-24.7c-1.1 0-3 .1-3.2.7-.6 1.4-.3 3.5-.1 5.9.2 2.4.9 21.7 1 28.9.1 7.1.5 8.2 1.2 9.6.7 1.3 6 .7 15.3.8s15 .5 16.1-.6.7-4.2.7-8.2zm-1.7 5.7c-1 .1-18.3.3-22.6.3s-6.6-.5-7.1-.9-1.2-8.9-1.1-14.9-.3-12-.7-16.2c-.4-4.3-.6-9.3-.2-9.8.3-.4 14.1-.1 17.6-.1 3.6-.1 12.1-.7 13 1.1s.8 3.2.8 4.8.9 24.1.8 27.9.5 7.7-.5 7.8zm-26.7-39.8c.4-.1-.1-1-.6-1s-2.3.2-2.6.4c-.3.3 0 5.2.1 5.5.1.2.8-.1 1-.5s0-3.8 0-4c0-.1 1.7-.3 2.1-.4zm19.3 1.3c-2.2 0-14.7-.2-16.1-.2-1.5 0-3.5.5-3.8.9-.3.7-.2 3.7-.3 5.5 0 1.9.2 14.9.1 18.4s.2 5.9.8 6.9c.6 1 2.5.9 5.5 1.1 3 .2 8.1.3 11.3.4 3.2.1 4.8-.1 6.2-1 1.4-.9 1.3-2.1 1.4-4.6s.4-17.3.5-20.9-.3-3.7-.7-5.3c-.4-1.4-2.7-1.2-4.9-1.2zm4.1 24.7c0 2.9 0 4.9-.4 5.6-.3.7-1.1 1.6-4.5 1.6s-13-.4-14.3-.4c-1.2-.1-2.9 0-3.3-.9-.4-1-.5-5.8-.5-12.3.1-6.6-.4-16.1 0-16.7.1-.3 7.4-.3 10.8-.3 3.5-.1 10.7.1 11.2.4.5.2 1.4 1.7 1.4 3.8s-.4 16.2-.4 19.2zm-9.7 9.5c-1.6-1.1-3.4-.3-3.9.3-.5.5-.3 1.8.3 2.2.6.4 2.5.8 3.2.5.7-.3 1.9-1.8.4-3zm-1.4 2c-.9 0-2.4-.4-1.3-1.2.3-.2 1.6-.2 2.1.2s.1 1-.8 1zm1.3-34c-.4 0-.5.3-.5.6 0 0 7.4 9.9 7.7 10.2.3.3.4-.2.3-.6 0-.4-7-10.2-7.5-10.2zm-4 2c-.6 0-.6.4-.5.6s1.7 2.2 3.4 4.3c1.7 2.2 7.6 9.3 7.7 9.3.1-.1-9.8-14.2-10.6-14.2zm-3.1 2.5c-.4-.1-.6.4-.5.6.1.2.5.8 1.7 2.1s10.2 14 10.2 14-.4-1-1.5-3.2c-1.2-2.1-9.7-13.4-9.9-13.5zm-2.2 4.3c-1.1 0-.4.9-.4 1.1 0 .2 1.4 1.9 3.5 4.3s8.6 11.5 8.9 11.3c.4-.3-11.7-16.7-12-16.7zm-.1 7.7c-.1.1-.5.3-.5.6s9.6 11.8 9.7 11.6c0-.3-8.8-12.4-9.2-12.2zm-.6 7c-1-.1 0 1.3.2 1.6.2.4 3.3 3.5 3.5 3 .2-.4-3.2-4.5-3.7-4.6z"/></svg>